PathFileType	4	(X/Y/Z)	SUBJ36_2_walk_RCNL2025.trc
DataRate	CameraRate	NumFrames	NumMarkers	Units	OrigDataRate	OrigDataStartFrame	OrigNumFrames
100	100	4	25	mm	100	100	399
Frame#	Time	R_Shoulder			L_Shoulder			C7			J_Notch			R_Elbow			L_Elbow			R_Wrist			L_Wrist			R_Asis			L_Asis			Sacral			Thoracic			Sternum			R_Thigh_Lateral			R_Knee_Lateral			R_Shank_Lateral			R_Ankle_Lateral			R_Heel			R_Toe			L_Thigh_Lateral			L_Knee_Lateral			L_Shank_Lateral			L_Ankle_Lateral			L_Heel			L_Toe		
		X1	Y1	Z1	X2	Y2	Z2	X3	Y3	Z3	X4	Y4	Z4	X5	Y5	Z5	X6	Y6	Z6	X7	Y7	Z7	X8	Y8	Z8	X9	Y9	Z9	X10	Y10	Z10	X11	Y11	Z11	X12	Y12	Z12	X13	Y13	Z13	X14	Y14	Z14	X15	Y15	Z15	X16	Y16	Z16	X17	Y17	Z17	X18	Y18	Z18	X19	Y19	Z19	X20	Y20	Z20	X21	Y21	Z21	X22	Y22	Z22	X23	Y23	Z23	X24	Y24	Z24	X25	Y25	Z25
100	0.99000000	-509.982147	1339.308960	-206.295563	-535.162048	1311.232544	-552.659180	-585.642456	1396.161743	-364.158783	-451.452423	1288.654663	-373.031525	-546.712891	1020.588928	-123.473083	-622.458679	1004.051331	-593.322815	-393.187576	833.012451	-127.873165	-565.707184	777.799469	-609.516449	-465.961700	900.880798	-246.624069	-462.425842	896.236572	-475.299500	-680.199585	889.187683	-362.481598	-660.719910	1138.214722	-349.255219	-417.779724	1107.891724	-366.093658	-671.033875	518.629395	-211.066116	-688.826904	460.963135	-263.293182	-767.451294	259.913940	-238.756180	-803.274536	96.105415	-318.823303	-853.698547	84.695763	-365.898743	-689.390991	51.107662	-346.311646	-436.121033	501.736145	-535.046143	-387.487152	449.918335	-467.205872	-349.986542	239.787109	-491.264801	-297.601227	80.056137	-412.421692	-318.669189	43.376801	-352.637878	-164.049194	89.489441	-404.362427
101	1.00000000	-498.285553	1338.331177	-206.260239	-523.618896	1310.085083	-552.645691	-574.027649	1395.048950	-364.148041	-439.763245	1287.591309	-373.008026	-535.182983	1019.618835	-123.430077	-612.052673	1003.224548	-593.025085	-383.410461	830.474152	-127.056629	-557.024475	776.609497	-609.704865	-454.087158	899.990295	-246.149475	-450.239227	894.870789	-475.026703	-668.032043	888.319824	-362.369965	-648.849060	1137.022583	-349.104370	-406.030701	1106.836426	-365.936066	-662.457886	519.268921	-210.512024	-680.659119	461.625458	-262.635406	-763.035461	262.030182	-238.046402	-801.678406	98.672905	-317.986206	-852.171265	88.334938	-365.175476	-688.694092	51.139969	-345.894836	-428.296295	498.026154	-532.393250	-377.223145	448.424500	-464.752716	-335.810150	238.299591	-487.842773	-279.422607	79.880493	-408.481750	-299.630310	43.014065	-348.483978	-145.648834	91.464981	-400.486359
102	1.01000000	-486.516571	1337.417236	-206.311737	-511.983917	1308.970093	-552.721741	-562.345154	1393.959595	-364.233276	-427.967377	1286.597412	-373.057190	-523.659424	1018.738037	-123.416000	-601.469604	1002.397156	-592.774109	-373.919617	827.830292	-126.168579	-548.028809	775.453888	-609.863617	-442.028839	899.053711	-245.592957	-437.718445	893.498718	-474.624908	-655.621948	887.501160	-362.306366	-636.805359	1135.820190	-349.014679	-394.102448	1105.862671	-365.830505	-653.542358	519.777222	-209.994125	-672.050293	462.137390	-261.983521	-758.347961	264.171967	-237.354706	-799.936401	101.349365	-317.126648	-850.455688	92.131035	-364.454193	-687.937073	51.146034	-345.479706	-418.906525	494.963318	-530.081970	-366.345917	447.014008	-462.417053	-322.695435	236.844254	-484.523987	-263.682098	79.514984	-404.679199	-283.359283	42.640789	-344.535339	-129.782974	92.269920	-396.675842
103	1.02000000	-474.676636	1336.557617	-206.449982	-500.247650	1307.878906	-552.887756	-550.589172	1392.895630	-364.417175	-416.060791	1285.673706	-373.178436	-512.148743	1017.940430	-123.427223	-590.712830	1001.562866	-592.569336	-364.711700	825.107147	-125.209732	-538.715668	774.324493	-609.989960	-429.782806	898.058472	-244.949692	-424.862030	892.143311	-474.079895	-642.972290	886.731079	-362.287811	-624.585388	1134.613037	-348.987183	-381.988037	1104.970825	-365.773346	-644.263916	520.125122	-209.518982	-662.981384	462.470581	-261.338562	-753.385315	266.338440	-236.693390	-798.029297	104.128716	-316.251740	-848.520996	96.083214	-363.746582	-687.121155	51.111027	-345.071838	-407.857422	492.644196	-528.159973	-354.869476	445.679199	-460.226685	-310.554138	235.405609	-481.358429	-250.282745	78.884178	-401.081268	-269.790314	42.181004	-340.872681	-116.342056	91.812874	-392.969727
